<svg width="134" height="53" viewBox="0 0 134 53" fill="none" xmlns="http://www.w3.org/2000/svg">
<path d="M13.7478 27.2942L6.11098 50.5245C5.84118 51.3452 5.07492 51.8999 4.21101 51.8999H131C132.105 51.8999 133 51.0045 133 49.8999V45.2395C133 44.135 132.105 43.2395 131 43.2395H130.564C129.701 43.2395 128.935 42.686 128.664 41.8665L122.465 23.0867C122.255 22.4514 121.742 21.963 121.097 21.7854L116.004 20.3827C115.455 20.2316 114.996 19.8538 114.743 19.344L110.959 11.7237C110.184 10.1626 107.922 10.2711 107.3 11.8991L102.314 24.9429C102.08 25.5543 101.562 26.0126 100.927 26.1701L94.9946 27.6405C94.4715 27.7702 93.9181 27.6832 93.46 27.3993L82.3426 20.5106C81.9607 20.2739 81.6695 19.9155 81.5162 19.4931L75.6051 3.21425C75.1718 2.02101 73.7508 1.52814 72.6717 2.19679L67.6468 5.31043C67.2302 5.5686 66.9228 5.97077 66.7832 6.44059L61.7984 23.208C61.6487 23.7118 61.3066 24.1364 60.8463 24.39L54.8212 27.7085C54.6588 27.7979 54.5097 27.9095 54.378 28.04L48.1752 34.1897C47.4133 34.945 46.1913 34.9647 45.4055 34.2343L42.1711 31.2281C41.3218 30.4387 39.9812 30.5347 39.253 31.4371L35.6588 35.8914C34.9595 36.758 33.687 36.8866 32.8285 36.1773L20.9663 26.3769C20.6079 26.0808 20.1574 25.9188 19.6924 25.9188H15.6478C14.7839 25.9188 14.0176 26.4735 13.7478 27.2942Z" fill="url(#paint0_linear_485_3697)"/>
<path d="M1 51.8999H4.21101C5.07492 51.8999 5.84118 51.3452 6.11098 50.5245L13.7478 27.2942C14.0176 26.4735 14.7839 25.9188 15.6478 25.9188H19.6924C20.1574 25.9188 20.6079 26.0808 20.9663 26.3769L32.8285 36.1773C33.687 36.8866 34.9595 36.758 35.6588 35.8914L39.253 31.4371C39.9812 30.5347 41.3218 30.4387 42.1711 31.2281L45.4055 34.2343C46.1913 34.9647 47.4133 34.945 48.1752 34.1897L54.378 28.04C54.5097 27.9095 54.6588 27.7979 54.8212 27.7085L60.8463 24.39C61.3066 24.1364 61.6487 23.7118 61.7984 23.208L66.7832 6.44059C66.9228 5.97077 67.2302 5.5686 67.6468 5.31043L72.6717 2.19679C73.7508 1.52814 75.1718 2.02101 75.6051 3.21425L81.5162 19.4931C81.6695 19.9155 81.9607 20.2739 82.3426 20.5106L93.46 27.3993C93.9181 27.6832 94.4715 27.7702 94.9946 27.6405L100.927 26.1701C101.562 26.0126 102.08 25.5543 102.314 24.9429L107.3 11.8991C107.922 10.2711 110.184 10.1626 110.959 11.7237L114.743 19.344C114.996 19.8538 115.455 20.2316 116.004 20.3827L121.097 21.7854C121.742 21.963 122.255 22.4514 122.465 23.0867L128.664 41.8665C128.935 42.686 129.701 43.2395 130.564 43.2395H133" stroke="#58BD7D" stroke-linecap="round" stroke-linejoin="round"/>
<defs>
<linearGradient id="paint0_linear_485_3697" x1="67.7765" y1="-92.4397" x2="66.584" y2="51.8965" gradientUnits="userSpaceOnUse">
<stop stop-color="#45B36B"/>
<stop offset="1" stop-color="#45B36B" stop-opacity="0"/>
</linearGradient>
</defs>
</svg>
