<svg width="11" height="12" viewBox="0 0 11 12" fill="none" xmlns="http://www.w3.org/2000/svg">
<path d="M0.569081 0H5.77471C6.80205 0 7.62916 0.149302 8.25935 0.440968C8.89282 0.736107 9.4147 1.15972 9.82498 1.70833C10.2385 2.26042 10.5372 2.8993 10.721 3.63194C10.9081 4.36111 11 5.13542 11 5.95486C11 7.23611 10.8622 8.22916 10.5864 8.9375C10.3107 9.64236 9.92672 10.2361 9.43767 10.7118C8.94862 11.191 8.42346 11.5069 7.85892 11.6667C7.09087 11.8854 6.39505 11.9931 5.77142 11.9931H0.565796V0H0.569081ZM4.07123 2.71528V9.26736H4.93117C5.66311 9.26736 6.18498 9.18056 6.49351 9.01042C6.80204 8.84028 7.04492 8.5382 7.22216 8.11111C7.39612 7.68403 7.48475 6.98958 7.48475 6.02778C7.48475 4.75695 7.28781 3.88889 6.89722 3.41667C6.50336 2.94792 5.85676 2.71181 4.94758 2.71181H4.07123V2.71528Z" fill="black"/>
</svg>
