<svg width="29" height="32" viewBox="0 0 29 32" fill="none" xmlns="http://www.w3.org/2000/svg">
<circle cx="16" cy="16" r="16" fill="#1C2127"/>
<path d="M18.357 21.613L18.9344 22.1913C18.2434 22.2774 17.5351 22.24 16.8537 22.079C15.9664 21.8694 15.1348 21.4539 14.4515 20.8774L13.8549 21.5456C14.6479 22.2138 15.6103 22.6948 16.6381 22.9381C17.0173 23.0279 17.4023 23.0841 17.7891 23.1084C18.1703 23.1308 18.5514 23.1215 18.9306 23.0822L18.3878 23.6474L19.0538 24.2501L20.6263 22.6105L19.0076 20.9954L18.357 21.613Z" fill="white"/>
<path d="M23.4731 15.3957C23.3787 14.3981 22.9726 13.4867 22.349 12.7567C22.2508 12.6426 22.1507 12.534 22.0429 12.4292C21.9351 12.3244 21.8235 12.2252 21.7061 12.1316C20.9554 11.5252 20.0199 11.1303 18.9921 11.0386V11.9276C19.7678 12.0119 20.478 12.3113 21.0593 12.7624L20.3645 13.438C19.9699 13.1535 19.5022 12.9589 18.994 12.8859V11.9276H18.0836V12.8859C17.9412 12.9065 17.8045 12.9364 17.6698 12.9757C17.6678 12.972 17.6659 12.9682 17.664 12.9645C17.485 12.6838 17.2752 12.4217 17.0423 12.184C17.3695 12.0549 17.7198 11.9688 18.0855 11.9276V11.0386C17.4388 11.0966 16.8267 11.2745 16.2781 11.5496C16.2743 11.5477 16.2724 11.544 16.2685 11.5421C15.4697 11.0068 14.5015 10.6924 13.4583 10.6924C10.7193 10.6924 8.5 12.8503 8.5 15.5117C8.5 18.175 10.7193 20.3311 13.4583 20.3311C14.2802 20.3311 15.054 20.1365 15.7354 19.7921C16.0337 19.6424 16.3166 19.4627 16.5746 19.2568C16.8402 19.0491 17.0846 18.8114 17.304 18.5512C17.4985 18.3191 17.6717 18.0665 17.8218 17.8007C18.1991 17.1194 18.4166 16.339 18.4166 15.5099C18.4166 14.9016 18.2992 14.3177 18.0875 13.7824C18.2337 13.7506 18.3858 13.7337 18.5417 13.7337C19.1365 13.7337 19.6754 13.9695 20.0681 14.3495H20.07C20.1778 14.4543 20.274 14.5703 20.3568 14.6957C20.5743 15.0233 20.7033 15.4144 20.7033 15.8337C20.7033 16.4138 20.4607 16.9398 20.07 17.3178C19.6773 17.6978 19.1403 17.9336 18.5436 17.9336C18.2896 17.9336 18.047 17.8905 17.8218 17.8119C17.6717 18.0777 17.5004 18.3304 17.304 18.5624C17.5504 18.6691 17.8141 18.7459 18.0894 18.7852V19.7415C17.5447 19.6817 17.0327 19.517 16.5746 19.268C16.3166 19.4739 16.0337 19.6517 15.7354 19.8033C16.4167 20.26 17.2213 20.5557 18.0894 20.6324C18.2395 20.6455 18.3916 20.653 18.5436 20.653C18.6957 20.653 18.8497 20.6474 18.9979 20.6324C20.0238 20.5407 20.9612 20.1458 21.7099 19.5394C21.8273 19.444 21.939 19.3466 22.0468 19.2418C22.1546 19.137 22.2566 19.0285 22.3528 18.9143C22.9784 18.1863 23.3845 17.2748 23.4788 16.2754C23.4923 16.1294 23.5 15.9815 23.5 15.8337C23.5 15.6858 23.4865 15.5417 23.4731 15.3957ZM17.0403 17.3366C16.5938 18.1601 15.8585 18.8132 14.9654 19.1632C14.4977 19.3485 13.9876 19.4496 13.4525 19.4496C11.2197 19.4496 9.40467 17.6847 9.40467 15.5136C9.40467 13.3444 11.2197 11.5776 13.4525 11.5776C14.1666 11.5776 14.8384 11.7592 15.4216 12.0755C15.7026 12.2271 15.9606 12.4105 16.1935 12.6201C16.4341 12.8354 16.6477 13.0787 16.8286 13.3444C16.9961 13.5915 17.1385 13.8591 17.2463 14.1417C17.4099 14.5685 17.5004 15.0307 17.5004 15.5136C17.5004 16.1705 17.3348 16.7919 17.0403 17.3366ZM18.9921 19.749V18.7926C19.5003 18.7197 19.968 18.525 20.3626 18.2405L21.0574 18.9162C20.4761 19.3654 19.7659 19.6648 18.9921 19.749ZM21.6984 18.2892L21.0035 17.6135C21.2961 17.2299 21.4963 16.7751 21.5713 16.281H22.5568C22.4702 17.0352 22.1642 17.7258 21.6984 18.2892ZM21.5733 15.3957C21.4982 14.9016 21.298 14.4487 21.0055 14.065L21.7003 13.3875C22.1642 13.9508 22.4702 14.6415 22.5588 15.3957H21.5733Z" fill="white"/>
<path d="M13.978 15.115C13.9048 15.0813 13.8278 15.0513 13.747 15.0195C13.1984 14.8193 13.1599 14.7219 13.1599 14.5891C13.1599 14.4113 13.3293 14.2933 13.5815 14.2933C13.7143 14.2933 13.8471 14.3139 13.9761 14.3532C13.9972 14.3588 14.0203 14.3663 14.0415 14.3738C14.1608 14.4206 14.2937 14.4187 14.4111 14.3645C14.5285 14.3121 14.6189 14.2129 14.6651 14.0893C14.7498 13.8498 14.6209 13.5896 14.3764 13.4998C14.2763 13.4642 14.1416 13.4231 13.9761 13.3969V13.2977C13.9761 13.0543 13.772 12.856 13.5218 12.856C13.2697 12.856 13.0675 13.0543 13.0675 13.2977V13.4324C12.4574 13.6009 12.0647 14.0613 12.0647 14.6639C12.0647 15.0307 12.2418 15.5248 13.0675 15.8561C13.1137 15.8748 13.1638 15.8936 13.2157 15.9123C13.7412 16.1032 13.7836 16.2398 13.7836 16.397C13.7836 16.704 13.4178 16.7376 13.26 16.7376C13.1984 16.7376 13.1349 16.732 13.0675 16.7227C12.9424 16.704 12.8077 16.6665 12.6807 16.616C12.5575 16.5655 12.4189 16.5673 12.2995 16.6216C12.1783 16.6759 12.0859 16.7788 12.0378 16.9154C11.9569 17.1513 12.084 17.4077 12.3226 17.4994C12.5478 17.5855 12.8019 17.6379 13.0695 17.6529V17.7839C13.0695 18.0291 13.2716 18.2256 13.5237 18.2256C13.7739 18.2256 13.978 18.0291 13.978 17.7839V17.548C14.5477 17.3553 14.8903 16.9192 14.8903 16.3352C14.8903 15.7906 14.5978 15.3995 13.978 15.115Z" fill="white"/>
<path d="M16.3089 10.0539L15.5775 9.67588C16.2088 9.38953 16.8941 9.21546 17.5947 9.1668C18.5071 9.10317 19.4271 9.25289 20.2586 9.59914L20.6166 8.78687C19.6523 8.38448 18.584 8.21042 17.5293 8.28529C16.7593 8.33956 16.001 8.52484 15.3003 8.82804L15.641 8.12807L14.8191 7.75L13.8356 9.77694L15.8835 10.8363L16.3089 10.0539Z" fill="white"/>
</svg>
