<svg width="13" height="12" viewBox="0 0 13 12" fill="none" xmlns="http://www.w3.org/2000/svg">
<path d="M0.918701 11.9931V0H6.75779C7.84093 0 8.66805 0.097219 9.23916 0.295136C9.81027 0.493052 10.2731 0.857639 10.6243 1.38889C10.9755 1.92014 11.1494 2.56944 11.1494 3.33333C11.1494 4 11.0148 4.57292 10.749 5.05555C10.4798 5.53819 10.1122 5.93056 9.64288 6.22917C9.3442 6.42014 8.93392 6.57986 8.41204 6.70486C8.82889 6.85417 9.13413 7 9.3245 7.14583C9.45251 7.24306 9.63959 7.45486 9.88576 7.77778C10.1286 8.10069 10.2928 8.34722 10.3748 8.5243L12.0717 12H8.11336L6.2392 8.33333C6.00288 7.85764 5.78953 7.55208 5.60573 7.40972C5.353 7.22569 5.06744 7.13194 4.74578 7.13194H4.43725V12H0.918701V11.9931ZM4.43725 4.85764H5.91426C6.07509 4.85764 6.38362 4.80208 6.84313 4.69444C7.07617 4.64583 7.26654 4.52083 7.41095 4.31945C7.55866 4.11806 7.63087 3.88542 7.63087 3.625C7.63087 3.23611 7.51599 2.94097 7.28295 2.73264C7.04991 2.5243 6.61666 2.42014 5.97662 2.42014H4.43725V4.85764Z" fill="black"/>
</svg>
