<svg width="18" height="18" viewBox="0 0 18 18" fill="none" xmlns="http://www.w3.org/2000/svg">
<path d="M11.1225 8.46752L7.94249 5.28752C7.87277 5.21723 7.78981 5.16143 7.69842 5.12335C7.60703 5.08528 7.509 5.06567 7.40999 5.06567C7.31098 5.06567 7.21295 5.08528 7.12156 5.12335C7.03016 5.16143 6.94721 5.21723 6.87749 5.28752C6.7378 5.42804 6.65939 5.61813 6.65939 5.81627C6.65939 6.01441 6.7378 6.2045 6.87749 6.34502L9.53249 9.00002L6.87749 11.655C6.7378 11.7955 6.65939 11.9856 6.65939 12.1838C6.65939 12.3819 6.7378 12.572 6.87749 12.7125C6.94757 12.782 7.03068 12.837 7.12206 12.8744C7.21344 12.9117 7.31128 12.9306 7.40999 12.93C7.50869 12.9306 7.60654 12.9117 7.69792 12.8744C7.7893 12.837 7.87241 12.782 7.94249 12.7125L11.1225 9.53252C11.1928 9.4628 11.2486 9.37985 11.2867 9.28846C11.3247 9.19706 11.3443 9.09903 11.3443 9.00002C11.3443 8.90101 11.3247 8.80298 11.2867 8.71159C11.2486 8.6202 11.1928 8.53724 11.1225 8.46752Z" fill="#1C2127"/>
</svg>
