<svg width="15" height="15" viewBox="0 0 15 15" fill="none" xmlns="http://www.w3.org/2000/svg">
<rect x="0.5" y="0.5" width="13.4" height="13.4" rx="6.7" fill="#262932"/>
<rect x="0.5" y="0.5" width="13.4" height="13.4" rx="6.7" stroke="#20252B"/>
<path d="M10.7521 6.97211C10.7235 6.89846 10.6807 6.83117 10.6261 6.77411L7.6261 3.77411C7.57015 3.71817 7.50374 3.67379 7.43065 3.64352C7.35755 3.61324 7.27921 3.59766 7.2001 3.59766C7.04032 3.59766 6.88708 3.66113 6.7741 3.77411C6.71815 3.83005 6.67378 3.89647 6.6435 3.96956C6.61323 4.04265 6.59764 4.121 6.59764 4.20011C6.59764 4.35989 6.66112 4.51313 6.7741 4.62611L8.7541 6.60011H4.2001C4.04097 6.60011 3.88836 6.66333 3.77583 6.77585C3.66331 6.88837 3.6001 7.04098 3.6001 7.20011C3.6001 7.35924 3.66331 7.51185 3.77583 7.62437C3.88836 7.7369 4.04097 7.80011 4.2001 7.80011H8.7541L6.7741 9.77411C6.71786 9.82989 6.67322 9.89625 6.64276 9.96936C6.6123 10.0425 6.59662 10.1209 6.59662 10.2001C6.59662 10.2793 6.6123 10.3577 6.64276 10.4309C6.67322 10.504 6.71786 10.5703 6.7741 10.6261C6.82988 10.6823 6.89624 10.727 6.96935 10.7574C7.04247 10.7879 7.12089 10.8036 7.2001 10.8036C7.2793 10.8036 7.35773 10.7879 7.43084 10.7574C7.50396 10.727 7.57032 10.6823 7.6261 10.6261L10.6261 7.62611C10.6807 7.56905 10.7235 7.50176 10.7521 7.42811C10.8121 7.28203 10.8121 7.11819 10.7521 6.97211Z" fill="#F04438"/>
</svg>
