<svg width="17" height="17" viewBox="0 0 17 17" fill="none" xmlns="http://www.w3.org/2000/svg">
<path d="M12.9733 5.30657C12.9114 5.24409 12.8376 5.19449 12.7564 5.16065C12.6752 5.1268 12.588 5.10938 12.5 5.10938C12.412 5.10938 12.3249 5.1268 12.2436 5.16065C12.1624 5.19449 12.0886 5.24409 12.0267 5.30657L7.06001 10.2799L4.97334 8.18657C4.90899 8.12441 4.83303 8.07554 4.7498 8.04274C4.66656 8.00993 4.57768 7.99385 4.48822 7.99539C4.39877 7.99694 4.3105 8.01609 4.22844 8.05176C4.14639 8.08742 4.07217 8.13889 4.01001 8.20324C3.94785 8.26759 3.89897 8.34355 3.86617 8.42679C3.83337 8.51002 3.81728 8.59891 3.81883 8.68836C3.82038 8.77781 3.83953 8.86609 3.87519 8.94814C3.91085 9.03019 3.96233 9.10441 4.02667 9.16657L6.58667 11.7266C6.64865 11.7891 6.72238 11.8387 6.80362 11.8725C6.88486 11.9063 6.972 11.9238 7.06001 11.9238C7.14802 11.9238 7.23515 11.9063 7.31639 11.8725C7.39763 11.8387 7.47137 11.7891 7.53334 11.7266L12.9733 6.28657C13.041 6.22415 13.095 6.14838 13.132 6.06404C13.1689 5.97971 13.188 5.88864 13.188 5.79657C13.188 5.70451 13.1689 5.61344 13.132 5.5291C13.095 5.44477 13.041 5.369 12.9733 5.30657Z" fill="white"/>
</svg>
