<svg width="13" height="13" viewBox="0 0 13 13" fill="none" xmlns="http://www.w3.org/2000/svg">
<g clip-path="url(#clip0_485_459)">
<path d="M6.85001 6.30995C7.1168 6.07902 7.33079 5.79339 7.47745 5.47246C7.62411 5.15153 7.70002 4.80281 7.70001 4.44995C7.70001 3.78691 7.43662 3.15103 6.96778 2.68218C6.49894 2.21334 5.86305 1.94995 5.20001 1.94995C4.53697 1.94995 3.90109 2.21334 3.43225 2.68218C2.9634 3.15103 2.70001 3.78691 2.70001 4.44995C2.70001 4.80281 2.77591 5.15153 2.92257 5.47246C3.06924 5.79339 3.28322 6.07902 3.55001 6.30995C2.85008 6.62689 2.25624 7.13872 1.8395 7.78422C1.42276 8.42973 1.20075 9.18161 1.20001 9.94995C1.20001 10.0826 1.25269 10.2097 1.34646 10.3035C1.44023 10.3973 1.5674 10.45 1.70001 10.45C1.83262 10.45 1.9598 10.3973 2.05357 10.3035C2.14733 10.2097 2.20001 10.0826 2.20001 9.94995C2.20001 9.1543 2.51608 8.39124 3.07869 7.82863C3.6413 7.26602 4.40436 6.94995 5.20001 6.94995C5.99566 6.94995 6.75872 7.26602 7.32133 7.82863C7.88394 8.39124 8.20001 9.1543 8.20001 9.94995C8.20001 10.0826 8.25269 10.2097 8.34646 10.3035C8.44023 10.3973 8.5674 10.45 8.70001 10.45C8.83262 10.45 8.9598 10.3973 9.05357 10.3035C9.14733 10.2097 9.20001 10.0826 9.20001 9.94995C9.19928 9.18161 8.97726 8.42973 8.56052 7.78422C8.14378 7.13872 7.54994 6.62689 6.85001 6.30995ZM5.20001 5.94995C4.90334 5.94995 4.61333 5.86198 4.36666 5.69716C4.11998 5.53233 3.92772 5.29807 3.81419 5.02398C3.70066 4.74989 3.67096 4.44829 3.72883 4.15732C3.78671 3.86634 3.92957 3.59907 4.13935 3.38929C4.34913 3.17951 4.61641 3.03665 4.90738 2.97877C5.19835 2.9209 5.49995 2.9506 5.77404 3.06413C6.04813 3.17766 6.28239 3.36992 6.44722 3.6166C6.61204 3.86327 6.70001 4.15328 6.70001 4.44995C6.70001 4.84778 6.54198 5.22931 6.26067 5.51061C5.97937 5.79192 5.59784 5.94995 5.20001 5.94995ZM10.07 6.10995C10.39 5.74962 10.599 5.30448 10.6719 4.82812C10.7448 4.35176 10.6785 3.86449 10.4809 3.42495C10.2833 2.98541 9.96291 2.61235 9.55825 2.35066C9.15359 2.08898 8.68192 1.94982 8.20001 1.94995C8.0674 1.94995 7.94023 2.00263 7.84646 2.0964C7.75269 2.19017 7.70001 2.31734 7.70001 2.44995C7.70001 2.58256 7.75269 2.70974 7.84646 2.8035C7.94023 2.89727 8.0674 2.94995 8.20001 2.94995C8.59784 2.94995 8.97937 3.10799 9.26067 3.38929C9.54198 3.6706 9.70001 4.05213 9.70001 4.44995C9.6993 4.71257 9.62966 4.9704 9.49804 5.19766C9.36643 5.42492 9.17745 5.61364 8.95001 5.74495C8.87588 5.78771 8.81397 5.84878 8.77019 5.92232C8.72642 5.99586 8.70226 6.0794 8.70001 6.16495C8.69792 6.24983 8.71748 6.33385 8.75684 6.40908C8.79621 6.48431 8.85408 6.54828 8.92501 6.59495L9.12001 6.72495L9.18501 6.75995C9.78771 7.04581 10.2962 7.49795 10.6505 8.06311C11.0048 8.62827 11.1903 9.28292 11.185 9.94995C11.185 10.0826 11.2377 10.2097 11.3315 10.3035C11.4252 10.3973 11.5524 10.45 11.685 10.45C11.8176 10.45 11.9448 10.3973 12.0386 10.3035C12.1323 10.2097 12.185 10.0826 12.185 9.94995C12.1891 9.18267 11.9969 8.42708 11.6267 7.75498C11.2566 7.08289 10.7207 6.51661 10.07 6.10995Z" fill="#85D1F0"/>
</g>
<defs>
<clipPath id="clip0_485_459">
<rect width="12" height="12" fill="white" transform="translate(0.699982 0.199951)"/>
</clipPath>
</defs>
</svg>
